<svg width="88" height="60" viewBox="0 0 88 60" fill="none" xmlns="http://www.w3.org/2000/svg">
<path d="M5.20428 1.18182L10.4777 17.7585H10.6801L15.9642 1.18182H21.0779L13.5566 23H7.61195L0.0799894 1.18182H5.20428ZM42.5232 12.0909C42.5232 14.4702 42.0722 16.4943 41.1702 18.1634C40.2753 19.8324 39.0537 21.1072 37.5054 21.9879C35.9642 22.8615 34.2313 23.2983 32.3066 23.2983C30.3676 23.2983 28.6276 22.858 27.0864 21.9773C25.5452 21.0966 24.3271 19.8217 23.4323 18.1527C22.5374 16.4837 22.0899 14.4631 22.0899 12.0909C22.0899 9.71165 22.5374 7.6875 23.4323 6.01847C24.3271 4.34943 25.5452 3.07812 27.0864 2.20455C28.6276 1.32386 30.3676 0.883522 32.3066 0.883522C34.2313 0.883522 35.9642 1.32386 37.5054 2.20455C39.0537 3.07812 40.2753 4.34943 41.1702 6.01847C42.0722 7.6875 42.5232 9.71165 42.5232 12.0909ZM37.8463 12.0909C37.8463 10.5497 37.6155 9.25 37.1539 8.19176C36.6993 7.13352 36.0566 6.33097 35.2256 5.78409C34.3946 5.23722 33.4216 4.96378 32.3066 4.96378C31.1915 4.96378 30.2185 5.23722 29.3875 5.78409C28.5566 6.33097 27.9102 7.13352 27.4486 8.19176C26.9941 9.25 26.7668 10.5497 26.7668 12.0909C26.7668 13.6321 26.9941 14.9318 27.4486 15.9901C27.9102 17.0483 28.5566 17.8509 29.3875 18.3977C30.2185 18.9446 31.1915 19.218 32.3066 19.218C33.4216 19.218 34.3946 18.9446 35.2256 18.3977C36.0566 17.8509 36.6993 17.0483 37.1539 15.9901C37.6155 14.9318 37.8463 13.6321 37.8463 12.0909ZM65.191 8.82031H60.5248C60.4395 8.21662 60.2655 7.6804 60.0028 7.21165C59.74 6.73579 59.4026 6.33097 58.9907 5.99716C58.5787 5.66335 58.1029 5.40767 57.5631 5.23011C57.0305 5.05256 56.4516 4.96378 55.8266 4.96378C54.6974 4.96378 53.7137 5.24432 52.8756 5.8054C52.0376 6.35937 51.3877 7.16903 50.926 8.23438C50.4644 9.29261 50.2336 10.5781 50.2336 12.0909C50.2336 13.6463 50.4644 14.9531 50.926 16.0114C51.3948 17.0696 52.0482 17.8686 52.8863 18.4084C53.7243 18.9482 54.6938 19.218 55.7947 19.218C56.4126 19.218 56.9843 19.1364 57.5099 18.973C58.0425 18.8097 58.5148 18.5717 58.9268 18.2592C59.3387 17.9396 59.6796 17.5526 59.9495 17.098C60.2265 16.6435 60.4182 16.125 60.5248 15.5426L65.191 15.5639C65.0702 16.5653 64.7684 17.5312 64.2854 18.4616C63.8096 19.3849 63.1668 20.2124 62.3572 20.9439C61.5546 21.6683 60.5958 22.2436 59.4807 22.6697C58.3728 23.0888 57.1192 23.2983 55.7201 23.2983C53.7741 23.2983 52.034 22.858 50.4999 21.9773C48.9729 21.0966 47.7655 19.8217 46.8778 18.1527C45.9971 16.4837 45.5567 14.4631 45.5567 12.0909C45.5567 9.71165 46.0042 7.6875 46.8991 6.01847C47.7939 4.34943 49.0084 3.07812 50.5425 2.20455C52.0766 1.32386 53.8025 0.883522 55.7201 0.883522C56.9843 0.883522 58.1562 1.06108 59.2357 1.41619C60.3224 1.77131 61.2847 2.28977 62.1228 2.97159C62.9608 3.64631 63.6427 4.47372 64.1682 5.45383C64.7009 6.43395 65.0418 7.55611 65.191 8.82031ZM71.8493 23H66.9062L74.4381 1.18182H80.3827L87.904 23H82.9608L77.4957 6.16761H77.3252L71.8493 23ZM71.5404 14.424H83.2165V18.0249H71.5404V14.424Z" fill="#9E78CF"/>
<path d="M12.4899 39.5256V37.1818H28.8535V39.5256H21.9927V59H19.3507V39.5256H12.4899ZM35.179 59.3835C34.142 59.3835 33.201 59.1882 32.3558 58.7976C31.5107 58.3999 30.8395 57.8281 30.3423 57.0824C29.8452 56.3295 29.5966 55.4205 29.5966 54.3551C29.5966 53.4176 29.7813 52.6577 30.1506 52.0753C30.5199 51.4858 31.0135 51.0241 31.6314 50.6903C32.2493 50.3565 32.9311 50.108 33.6768 49.9446C34.4297 49.7741 35.1861 49.6392 35.946 49.5398C36.9403 49.4119 37.7464 49.3161 38.3643 49.2521C38.9893 49.1811 39.4439 49.0639 39.728 48.9006C40.0192 48.7372 40.1648 48.4531 40.1648 48.0483V47.9631C40.1648 46.9119 39.8771 46.0952 39.3018 45.5128C38.7337 44.9304 37.8707 44.6392 36.7131 44.6392C35.5128 44.6392 34.5717 44.902 33.8899 45.4276C33.2081 45.9531 32.7287 46.5142 32.4517 47.1108L30.0653 46.2585C30.4915 45.2642 31.0597 44.4901 31.7699 43.9361C32.4872 43.375 33.2685 42.9844 34.1136 42.7642C34.9659 42.5369 35.804 42.4233 36.6278 42.4233C37.1534 42.4233 37.7571 42.4872 38.4389 42.6151C39.1278 42.7358 39.7919 42.9879 40.4311 43.3714C41.0774 43.755 41.6136 44.3338 42.0398 45.108C42.4659 45.8821 42.679 46.919 42.679 48.2188V59H40.1648V56.7841H40.0369C39.8665 57.1392 39.5824 57.5192 39.1847 57.924C38.7869 58.3288 38.2578 58.6733 37.5973 58.9574C36.9368 59.2415 36.1307 59.3835 35.179 59.3835ZM35.5625 57.125C36.5568 57.125 37.3949 56.9297 38.0767 56.5391C38.7656 56.1484 39.2841 55.6442 39.6321 55.0263C39.9872 54.4084 40.1648 53.7585 40.1648 53.0767V50.7756C40.0582 50.9034 39.8239 51.0206 39.4616 51.1271C39.1065 51.2266 38.6946 51.3153 38.2259 51.3935C37.7642 51.4645 37.3132 51.5284 36.8729 51.5852C36.4396 51.6349 36.0881 51.6776 35.8182 51.7131C35.1648 51.7983 34.554 51.9368 33.9858 52.1286C33.4247 52.3132 32.9702 52.5937 32.6222 52.9702C32.2813 53.3395 32.1108 53.8437 32.1108 54.483C32.1108 55.3565 32.4339 56.017 33.0803 56.4645C33.7337 56.9048 34.5611 57.125 35.5625 57.125ZM58.8588 46.3011L56.6003 46.9403C56.4583 46.5639 56.2488 46.1982 55.9718 45.843C55.7019 45.4808 55.3326 45.1825 54.8638 44.9482C54.3951 44.7138 53.7949 44.5966 53.0634 44.5966C52.062 44.5966 51.2275 44.8274 50.5598 45.2891C49.8993 45.7436 49.5691 46.3224 49.5691 47.0256C49.5691 47.6506 49.7963 48.1442 50.2509 48.5064C50.7054 48.8686 51.4157 49.1705 52.3816 49.4119L54.8105 50.0085C56.2736 50.3636 57.3638 50.907 58.0811 51.6385C58.7985 52.3629 59.1571 53.2969 59.1571 54.4403C59.1571 55.3778 58.8873 56.2159 58.3475 56.9545C57.8148 57.6932 57.0691 58.2756 56.1103 58.7017C55.1515 59.1278 54.0364 59.3409 52.7651 59.3409C51.0961 59.3409 49.7147 58.9787 48.6209 58.2543C47.5272 57.5298 46.8347 56.4716 46.5435 55.0795L48.9299 54.483C49.1571 55.3636 49.5868 56.0241 50.2189 56.4645C50.8581 56.9048 51.6926 57.125 52.7225 57.125C53.8944 57.125 54.8248 56.8764 55.5137 56.3793C56.2097 55.875 56.5577 55.2713 56.5577 54.5682C56.5577 54 56.3588 53.5241 55.9611 53.1406C55.5634 52.75 54.9526 52.4588 54.1287 52.267L51.4015 51.6278C49.9029 51.2727 48.802 50.7223 48.0989 49.9766C47.4029 49.2237 47.0549 48.2827 47.0549 47.1534C47.0549 46.2301 47.3141 45.4134 47.8326 44.7031C48.3581 43.9929 49.0719 43.4354 49.9739 43.0305C50.883 42.6257 51.9128 42.4233 53.0634 42.4233C54.6827 42.4233 55.954 42.7784 56.8773 43.4886C57.8077 44.1989 58.4682 45.1364 58.8588 46.3011ZM65.2855 53.0341L65.2429 49.9233H65.7543L72.9134 42.6364H76.0241L68.3963 50.3494H68.1832L65.2855 53.0341ZM62.9418 59V37.1818H65.456V59H62.9418ZM73.3395 59L66.9474 50.9034L68.7372 49.1562L76.5355 59H73.3395Z" fill="white"/>
</svg>
